A01_T0017_GRF_2plates.mot
version=1
nRows=129
nColumns=19
inDegrees=yes
endheader
time	ground_force_vx	ground_force_vy	ground_force_vz	ground_force_px	ground_force_py	ground_force_pz	1_ground_force_vx	1_ground_force_vy	1_ground_force_vz	1_ground_force_px	1_ground_force_py	1_ground_force_pz	ground_torque_x	ground_torque_y	ground_torque_z	1_ground_torque_x	1_ground_torque_y	1_ground_torque_z	
0.90281	0	0	0	0	0	0	-92.68	986.51	-40.493	0.50959	0	0.40601	0	0	0	0	16.555	0
0.90323	0	0	0	0	0	0	-92.195	986.95	-40.112	0.50983	0	0.40599	0	0	0	0	16.484	0
0.90365	0	0	0	0	0	0	-92.034	986.09	-40.06	0.51	0	0.40602	0	0	0	0	16.491	0
0.90406	0	0	0	0	0	0	-91.775	985.05	-39.819	0.51003	0	0.40608	0	0	0	0	16.317	0
0.90448	0	0	0	0	0	0	-91.435	983.77	-39.7	0.50995	0	0.4061	0	0	0	0	16.37	0
0.9049	0	0	0	0	0	0	-90.951	983.78	-39.579	0.51037	0	0.40599	0	0	0	0	16.215	0
0.90531	0	0	0	0	0	0	-90.38	982.58	-39.614	0.51042	0	0.40598	0	0	0	0	16.16	0
0.90573	0	0	0	0	0	0	-89.784	981.81	-39.447	0.51074	0	0.40593	0	0	0	0	16.087	0
0.90615	0	0	0	0	0	0	-89.537	981.22	-39.374	0.51072	0	0.40579	0	0	0	0	16.095	0
0.90656	0	0	0	0	0	0	-89.073	980.19	-39.294	0.5108	0	0.40591	0	0	0	0	15.931	0
0.90698	0	0	0	0	0	0	-89.005	978.82	-38.941	0.51095	0	0.40583	0	0	0	0	15.946	0
0.9074	0	0	0	0	0	0	-88.611	978.9	-38.83	0.5112	0	0.40593	0	0	0	0	15.901	0
0.90781	0	0	0	0	0	0	-88.22	977.44	-38.77	0.51131	0	0.40596	0	0	0	0	15.817	0
0.90823	0	0	0	0	0	0	-87.693	976.77	-38.555	0.51147	0	0.40584	0	0	0	0	15.68	0
0.90865	0	0	0	0	0	0	-87.44	976	-38.612	0.51153	0	0.40582	0	0	0	0	15.57	0
0.90906	0	0	0	0	0	0	-86.795	974.79	-38.426	0.51178	0	0.40599	0	0	0	0	15.569	0
0.90948	0	0	0	0	0	0	-86.614	975.07	-38.418	0.512	0	0.40571	0	0	0	0	15.433	0
0.9099	0	0	0	0	0	0	-86.154	974.2	-38.236	0.51208	0	0.40588	0	0	0	0	15.469	0
0.91032	0	0	0	0	0	0	-85.719	972.57	-38.244	0.51211	0	0.40591	0	0	0	0	15.403	0
0.91073	0	0	0	0	0	0	-85.303	971.88	-37.945	0.51238	0	0.40597	0	0	0	0	15.366	0
0.91115	0	0	0	0	0	0	-84.781	971.47	-37.779	0.51252	0	0.4057	0	0	0	0	15.311	0
0.91157	0	0	0	0	0	0	-84.3	970.45	-37.833	0.51257	0	0.40567	0	0	0	0	15.156	0
0.91198	0	0	0	0	0	0	-84.32	969.15	-37.733	0.51267	0	0.4058	0	0	0	0	15.18	0
0.9124	0	0	0	0	0	0	-84.044	968.47	-37.585	0.51283	0	0.40569	0	0	0	0	15.061	0
0.91282	0	0	0	0	0	0	-83.492	967.7	-37.308	0.5131	0	0.40572	0	0	0	0	15.015	0
0.91323	0	0	0	0	0	0	-83.125	966.67	-37.368	0.51325	0	0.40578	0	0	0	0	14.995	0
0.91365	0	0	0	0	0	0	-82.734	965.46	-37.088	0.51319	0	0.40585	0	0	0	0	14.958	0
0.91407	0	0	0	0	0	0	-82.071	964.35	-37.169	0.5133	0	0.40585	0	0	0	0	14.885	0
0.91448	0	0	0	0	0	0	-81.774	963.85	-37.045	0.5135	0	0.40569	0	0	0	0	14.784	0
0.9149	0	0	0	0	0	0	-81.386	963.68	-36.907	0.51364	0	0.4056	0	0	0	0	14.748	0
0.91532	0	0	0	0	0	0	-81.43	962.39	-36.825	0.51372	0	0.40562	0	0	0	0	14.717	0
0.91573	0	0	0	0	0	0	-81.017	961.96	-36.779	0.51375	0	0.4057	0	0	0	0	14.7	0
0.91615	0	0	0	0	0	0	-80.782	960.84	-36.742	0.51391	0	0.40581	0	0	0	0	14.562	0
0.91657	0	0	0	0	0	0	-80.12	959.91	-36.461	0.51408	0	0.40565	0	0	0	0	14.497	0
0.91698	0	0	0	0	0	0	-79.824	959.57	-36.592	0.51423	0	0.40562	0	0	0	0	14.461	0
0.9174	0	0	0	0	0	0	-79.344	958.63	-36.383	0.5143	0	0.40562	0	0	0	0	14.442	0
0.91782	0	0	0	0	0	0	-78.878	957.86	-36.235	0.51455	0	0.40573	0	0	0	0	14.268	0
0.91823	0	0	0	0	0	0	-78.698	956.14	-36.4	0.51452	0	0.40571	0	0	0	0	14.238	0
0.91865	0	0	0	0	0	0	-78.402	955.11	-36.1	0.5147	0	0.40566	0	0	0	0	14.282	0
0.91907	0	0	0	0	0	0	-78.077	954.5	-36.048	0.5148	0	0.40578	0	0	0	0	14.2	0
0.91948	0	0	0	0	0	0	-77.712	953.48	-35.898	0.51491	0	0.40563	0	0	0	0	14.098	0
0.9199	0	0	0	0	0	0	-77.211	952.2	-35.912	0.51493	0	0.40562	0	0	0	0	14.088	0
0.92032	0	0	0	0	0	0	-77.027	951.85	-36.02	0.51532	0	0.40564	0	0	0	0	14.069	0
0.92074	0	0	0	0	0	0	-76.572	951.35	-35.813	0.51537	0	0.40552	0	0	0	0	14.06	0
0.92115	0	0	0	0	0	0	-76.38	950.31	-35.686	0.51533	0	0.40566	0	0	0	0	13.877	0
0.92157	0	0	0	0	0	0	-75.973	948.77	-35.65	0.51542	0	0.40556	0	0	0	0	13.875	0
0.92199	0	0	0	0	0	0	-75.559	948.87	-35.625	0.51579	0	0.40551	0	0	0	0	13.802	0
0.9224	0	0	0	0	0	0	-75.145	947.32	-35.476	0.51582	0	0.4056	0	0	0	0	13.737	0
0.92282	0	0	0	0	0	0	-74.623	947.24	-35.503	0.516	0	0.40554	0	0	0	0	13.802	0
0.92324	0	0	0	0	0	0	-74.141	945.61	-35.577	0.51601	0	0.4056	0	0	0	0	13.691	0
0.92365	0	0	0	0	0	0	-73.842	944.67	-35.45	0.51601	0	0.40553	0	0	0	0	13.544	0
0.92407	0	0	0	0	0	0	-73.749	943.64	-35.234	0.51611	0	0.40548	0	0	0	0	13.496	0
0.92449	0	0	0	0	0	0	-73.333	942.78	-35.226	0.51622	0	0.40561	0	0	0	0	13.414	0
0.9249	0	0	0	0	0	0	-73.013	942.44	-35.243	0.51639	0	0.40554	0	0	0	0	13.35	0
0.92532	0	0	0	0	0	0	-72.533	940.63	-35.165	0.51674	0	0.40565	0	0	0	0	13.402	0
0.92574	0	0	0	0	0	0	-72.243	940.31	-34.976	0.51675	0	0.40528	0	0	0	0	13.365	0
0.92615	0	0	0	0	0	0	-71.642	939.36	-34.947	0.51684	0	0.40548	0	0	0	0	13.274	0
0.92657	0	0	0	0	0	0	-71.275	938.24	-34.913	0.5171	0	0.40549	0	0	0	0	13.218	0
0.92699	0	0	0	0	0	0	-71.003	937.82	-35.043	0.51729	0	0.40539	0	0	0	0	13.19	0
0.9274	0	0	0	0	0	0	-70.722	936.53	-34.758	0.51723	0	0.40554	0	0	0	0	13.07	0
0.92782	0	0	0	0	0	0	-70.381	935.33	-34.769	0.51736	0	0.40547	0	0	0	0	13.023	0
0.92824	0	0	0	0	0	0	-69.973	934.39	-34.627	0.51739	0	0.40537	0	0	0	0	13.05	0
0.92865	0	0	0	0	0	0	-69.579	933.96	-34.51	0.51746	0	0.40549	0	0	0	0	12.968	0
0.92907	0	0	0	0	0	0	-69.28	932.58	-34.407	0.51752	0	0.40554	0	0	0	0	12.912	0
0.92949	0	0	0	0	0	0	-68.847	932.25	-34.267	0.51761	0	0.4054	0	0	0	0	12.857	0
0.92991	0	0	0	0	0	0	-68.341	930.45	-34.294	0.51796	0	0.40547	0	0	0	0	12.764	0
0.93032	0	0	0	0	0	0	-68.203	928.81	-34.318	0.51783	0	0.40543	0	0	0	0	12.634	0
0.93074	0	0	0	0	0	0	-67.819	928.13	-34.294	0.51793	0	0.40538	0	0	0	0	12.697	0
0.93116	0	0	0	0	0	0	-67.297	927.2	-34.196	0.51811	0	0.40524	0	0	0	0	12.696	0
0.93157	0	0	0	0	0	0	-66.97	926.5	-34.211	0.51823	0	0.40541	0	0	0	0	12.578	0
0.93199	0	0	0	0	0	0	-66.874	925.55	-34.022	0.51822	0	0.40552	0	0	0	0	12.54	0
0.93241	0	0	0	0	0	0	-66.235	924.53	-33.831	0.51835	0	0.40541	0	0	0	0	12.475	0
0.93282	0	0	0	0	0	0	-65.895	923.6	-33.909	0.51859	0	0.40526	0	0	0	0	12.41	0
0.93324	0	0	0	0	0	0	-65.575	922.57	-33.921	0.51854	0	0.40526	0	0	0	0	12.346	0
0.93366	0	0	0	0	0	0	-65.206	921.18	-34.095	0.51856	0	0.40554	0	0	0	0	12.327	0
0.93407	0	0	0	0	0	0	-64.817	920.85	-33.837	0.51888	0	0.40534	0	0	0	0	12.235	0
0.93449	0	0	0	0	0	0	-64.381	918.7	-33.889	0.51873	0	0.40551	0	0	0	0	12.196	0
0.93491	0	0	0	0	0	0	-64.059	918.19	-33.723	0.51908	0	0.40545	0	0	0	0	12.131	0
0.93532	0	0	0	0	0	0	-63.605	918.2	-33.699	0.51923	0	0.40526	0	0	0	0	12.096	0
0.93574	0	0	0	0	0	0	-63.126	917.34	-33.716	0.5192	0	0.40527	0	0	0	0	12.069	0
0.93616	0	0	0	0	0	0	-62.801	915.28	-33.713	0.51954	0	0.40532	0	0	0	0	11.91	0
0.93657	0	0	0	0	0	0	-62.436	915.03	-33.598	0.51958	0	0.40527	0	0	0	0	11.874	0
0.93699	0	0	0	0	0	0	-62.138	913.57	-33.496	0.51932	0	0.40534	0	0	0	0	11.828	0
0.93741	0	0	0	0	0	0	-61.774	913.4	-33.425	0.51959	0	0.4052	0	0	0	0	11.791	0
0.93782	0	0	0	0	0	0	-61.387	911.69	-33.568	0.51975	0	0.4052	0	0	0	0	11.77	0
0.93824	0	0	0	0	0	0	-60.994	910.22	-33.442	0.51973	0	0.40534	0	0	0	0	11.678	0
0.93866	0	0	0	0	0	0	-60.606	910.06	-33.392	0.51996	0	0.40522	0	0	0	0	11.615	0
0.93908	0	0	0	0	0	0	-60.376	908.08	-33.31	0.51991	0	0.40534	0	0	0	0	11.621	0
0.93949	0	0	0	0	0	0	-59.803	907.74	-33.236	0.52003	0	0.4053	0	0	0	0	11.494	0
0.93991	0	0	0	0	0	0	-59.552	906.28	-33.155	0.52018	0	0.40528	0	0	0	0	11.473	0
0.94033	0	0	0	0	0	0	-59.116	905.34	-33.279	0.52041	0	0.4053	0	0	0	0	11.373	0
0.94074	0	0	0	0	0	0	-58.728	903.96	-33.163	0.52026	0	0.40545	0	0	0	0	11.463	0
0.94116	0	0	0	0	0	0	-58.272	902.68	-33.125	0.52049	0	0.40532	0	0	0	0	11.37	0
0.94158	0	0	0	0	0	0	-58.046	903.03	-33.124	0.52038	0	0.40513	0	0	0	0	11.299	0
0.94199	0	0	0	0	0	0	-57.655	901.39	-33.024	0.5206	0	0.40531	0	0	0	0	11.315	0
0.94241	0	0	0	0	0	0	-57.358	899.25	-33.067	0.52057	0	0.40526	0	0	0	0	11.184	0
0.94283	0	0	0	0	0	0	-56.763	899.86	-33.053	0.52088	0	0.40526	0	0	0	0	11.177	0
0.94324	0	0	0	0	0	0	-56.51	897.79	-33.077	0.52092	0	0.40531	0	0	0	0	11.092	0
0.94366	0	0	0	0	0	0	-56.187	897.02	-32.821	0.52104	0	0.40534	0	0	0	0	11.046	0
0.94408	0	0	0	0	0	0	-55.823	896.6	-32.904	0.52105	0	0.4052	0	0	0	0	10.946	0
0.94449	0	0	0	0	0	0	-55.596	895.48	-33.054	0.52123	0	0.40525	0	0	0	0	10.971	0
0.94491	0	0	0	0	0	0	-55.141	895.24	-32.981	0.52121	0	0.40507	0	0	0	0	10.881	0
0.94533	0	0	0	0	0	0	-54.681	893.34	-32.763	0.52119	0	0.40519	0	0	0	0	10.843	0
0.94574	0	0	0	0	0	0	-54.338	892.66	-32.825	0.52154	0	0.40518	0	0	0	0	10.833	0
0.94616	0	0	0	0	0	0	-54.106	891.37	-32.696	0.52175	0	0.4052	0	0	0	0	10.739	0
0.94658	0	0	0	0	0	0	-53.627	890.25	-32.849	0.52161	0	0.40534	0	0	0	0	10.721	0
0.94699	0	0	0	0	0	0	-53.202	890.01	-32.823	0.52183	0	0.40496	0	0	0	0	10.748	0
0.94741	0	0	0	0	0	0	-53.082	888.1	-32.787	0.52189	0	0.40526	0	0	0	0	10.745	0
0.94783	0	0	0	0	0	0	-52.712	886.99	-32.723	0.52201	0	0.4052	0	0	0	0	10.534	0
0.94824	0	0	0	0	0	0	-52.305	885.28	-33.002	0.52203	0	0.40518	0	0	0	0	10.505	0
0.94866	0	0	0	0	0	0	-51.802	884.68	-32.749	0.5221	0	0.40512	0	0	0	0	10.478	0
0.94908	0	0	0	0	0	0	-51.568	883.73	-32.609	0.52208	0	0.40535	0	0	0	0	10.468	0
0.9495	0	0	0	0	0	0	-51.089	883.49	-32.486	0.52233	0	0.40507	0	0	0	0	10.323	0
0.94991	0	0	0	0	0	0	-50.635	881.85	-32.59	0.52241	0	0.40515	0	0	0	0	10.367	0
0.95033	0	0	0	0	0	0	-50.157	881.69	-32.586	0.52242	0	0.405	0	0	0	0	10.286	0
0.95075	0	0	0	0	0	0	-50.156	879.97	-32.658	0.52237	0	0.40507	0	0	0	0	10.21	0
0.95116	0	0	0	0	0	0	-49.837	878.68	-32.626	0.52247	0	0.40507	0	0	0	0	10.226	0
0.95158	0	0	0	0	0	0	-49.471	877.91	-32.733	0.52259	0	0.40514	0	0	0	0	10.199	0
0.952	0	0	0	0	0	0	-48.871	876.96	-32.635	0.52259	0	0.40529	0	0	0	0	10.081	0
0.95241	0	0	0	0	0	0	-48.605	876.81	-32.649	0.52302	0	0.40485	0	0	0	0	10.052	0
0.95283	0	0	0	0	0	0	-48.191	874.65	-32.837	0.5229	0	0.40511	0	0	0	0	10.014	0
0.95325	0	0	0	0	0	0	-47.595	873.97	-32.469	0.5231	0	0.40502	0	0	0	0	9.9499	0
0.95366	0	0	0	0	0	0	-47.364	872.25	-32.59	0.52296	0	0.4052	0	0	0	0	9.8845	0
0.95408	0	0	0	0	0	0	-47.255	871.39	-32.674	0.52326	0	0.4051	0	0	0	0	9.9551	0
0.9545	0	0	0	0	0	0	-46.822	871.06	-32.573	0.52338	0	0.40488	0	0	0	0	9.8185	0
0.95491	0	0	0	0	0	0	-46.526	870.2	-32.59	0.52337	0	0.40489	0	0	0	0	9.818	0
0.95533	0	0	0	0	0	0	-46.074	868.75	-32.646	0.52357	0	0.40476	0	0	0	0	9.8342	0
0.95575	0	0	0	0	0	0	-45.681	867.28	-32.726	0.52371	0	0.40498	0	0	0	0	9.7874	0
0.95616	0	0	0	0	0	0	-45.222	866.25	-32.447	0.52352	0	0.40502	0	0	0	0	9.7235	0
